<svg xmlns="http://www.w3.org/2000/svg" xmlns:xlink="http://www.w3.org/1999/xlink" viewBox="0 0 364.9 361.68"><defs><style>.cls-1,.cls-6{font-size:104.94px;font-family:Gelion-Medium, Gelion;font-weight:500;}.cls-2{letter-spacing:-0.01em;}.cls-3{letter-spacing:0.01em;}.cls-4{letter-spacing:0em;}.cls-5{letter-spacing:0em;}.cls-6{fill:#09074c;}.cls-7{fill:url(#linear-gradient);}.cls-8{fill:url(#linear-gradient-2);}.cls-9{fill:url(#linear-gradient-3);}</style><linearGradient id="linear-gradient" x1="182.61" y1="71.85" x2="293.06" y2="71.85" gradientUnits="userSpaceOnUse"><stop offset="0" stop-color="#0084ff"/><stop offset="0.09" stop-color="#1980fb"/><stop offset="0.55" stop-color="#8f6ee8"/><stop offset="0.86" stop-color="#da62dc"/><stop offset="1" stop-color="#f75ed7"/></linearGradient><linearGradient id="linear-gradient-2" x1="71.84" y1="112.67" x2="293.06" y2="112.67" xlink:href="#linear-gradient"/><linearGradient id="linear-gradient-3" x1="71.84" y1="152.7" x2="182.29" y2="152.7" xlink:href="#linear-gradient"/></defs><g id="Layer_2" data-name="Layer 2"><g id="Layer_1-2" data-name="Layer 1"><text class="cls-1" transform="translate(0 336.27)">n<tspan class="cls-2" x="55.6" y="0">e</tspan><tspan class="cls-3" x="108.89" y="0">x</tspan><tspan class="cls-4" x="159.11" y="0">t</tspan><tspan class="cls-5" x="191.95" y="0">r</tspan><tspan x="227.31" y="0">ole</tspan></text><text class="cls-6" transform="translate(0 336.27)">n<tspan class="cls-2" x="55.6" y="0">e</tspan><tspan class="cls-3" x="108.89" y="0">x</tspan><tspan class="cls-4" x="159.11" y="0">t</tspan><tspan class="cls-5" x="191.95" y="0">r</tspan><tspan x="227.31" y="0">ole</tspan></text><polygon class="cls-7" points="182.61 0 182.61 64.43 293.06 143.7 293.06 78.17 182.61 0"/><polygon class="cls-8" points="71.83 1.42 71.83 67.27 293.06 223.92 293.06 158.23 71.83 1.42"/><polygon class="cls-9" points="71.83 81.48 71.83 147.81 182.29 223.92 182.29 160.13 71.83 81.48"/></g></g></svg>